{
    "asset" : {
        "generator" : "Khronos glTF Blender I/O v1.8.19",
        "version" : "2.0"
    },
    "scene" : 0,
    "scenes" : [
        {
            "name" : "Scene",
            "nodes" : [
                0
            ]
        }
    ],
    "nodes" : [
        {
            "mesh" : 0,
            "name" : "Head"
        }
    ],
    "meshes" : [
        {
            "name" : "Sphere",
            "primitives" : [
                {
                    "attributes" : {
                        "POSITION" : 0,
                        "NORMAL" : 1,
                        "TEXCOORD_0" : 2
                    },
                    "indices" : 3
                }
            ]
        }
    ],
    "accessors" : [
        {
            "bufferView" : 0,
            "componentType" : 5126,
            "count" : 1114,
            "max" : [
                0.14137057960033417,
                0.20640327036380768,
                0.11421999335289001
            ],
            "min" : [
                -0.0781402438879013,
                0.015199767425656319,
                -0.14708636701107025
            ],
            "type" : "VEC3"
        },
        {
            "bufferView" : 1,
            "componentType" : 5126,
            "count" : 1114,
            "type" : "VEC3"
        },
        {
            "bufferView" : 2,
            "componentType" : 5126,
            "count" : 1114,
            "type" : "VEC2"
        },
        {
            "bufferView" : 3,
            "componentType" : 5123,
            "count" : 4872,
            "type" : "SCALAR"
        }
    ],
    "bufferViews" : [
        {
            "buffer" : 0,
            "byteLength" : 13368,
            "byteOffset" : 0
        },
        {
            "buffer" : 0,
            "byteLength" : 13368,
            "byteOffset" : 13368
        },
        {
            "buffer" : 0,
            "byteLength" : 8912,
            "byteOffset" : 26736
        },
        {
            "buffer" : 0,
            "byteLength" : 9744,
            "byteOffset" : 35648
        }
    ],
    "buffers" : [
        {
            "byteLength" : 45392,
            "uri" : "Head.bin"
        }
    ]
}
