{
    "asset" : {
        "generator" : "Khronos glTF Blender I/O v1.8.19",
        "version" : "2.0"
    },
    "scene" : 0,
    "scenes" : [
        {
            "name" : "Scene",
            "nodes" : [
                0
            ]
        }
    ],
    "nodes" : [
        {
            "mesh" : 0,
            "name" : "RibCage"
        }
    ],
    "meshes" : [
        {
            "name" : "Sphere.001",
            "primitives" : [
                {
                    "attributes" : {
                        "POSITION" : 0,
                        "NORMAL" : 1,
                        "TEXCOORD_0" : 2
                    },
                    "indices" : 3
                }
            ]
        }
    ],
    "accessors" : [
        {
            "bufferView" : 0,
            "componentType" : 5126,
            "count" : 1410,
            "max" : [
                0.3079484701156616,
                0.5278086066246033,
                0.32793760299682617
            ],
            "min" : [
                -0.2948542535305023,
                -0.2586117386817932,
                -0.45877739787101746
            ],
            "type" : "VEC3"
        },
        {
            "bufferView" : 1,
            "componentType" : 5126,
            "count" : 1410,
            "type" : "VEC3"
        },
        {
            "bufferView" : 2,
            "componentType" : 5126,
            "count" : 1410,
            "type" : "VEC2"
        },
        {
            "bufferView" : 3,
            "componentType" : 5123,
            "count" : 6552,
            "type" : "SCALAR"
        }
    ],
    "bufferViews" : [
        {
            "buffer" : 0,
            "byteLength" : 16920,
            "byteOffset" : 0
        },
        {
            "buffer" : 0,
            "byteLength" : 16920,
            "byteOffset" : 16920
        },
        {
            "buffer" : 0,
            "byteLength" : 11280,
            "byteOffset" : 33840
        },
        {
            "buffer" : 0,
            "byteLength" : 13104,
            "byteOffset" : 45120
        }
    ],
    "buffers" : [
        {
            "byteLength" : 58224,
            "uri" : "RibCage.bin"
        }
    ]
}
